<?xml version="1.0" encoding="UTF-8"?>
<!DOCTYPE svg PUBLIC "-//W3C//DTD SVG 1.1//EN" "http://www.w3.org/Graphics/SVG/1.1/DTD/svg11.dtd">
<!-- Creator: CorelDRAW X7 -->
<svg xmlns="http://www.w3.org/2000/svg" xml:space="preserve" width="29mm" height="36mm" version="1.1" style="shape-rendering:geometricPrecision; text-rendering:geometricPrecision; image-rendering:optimizeQuality; fill-rule:evenodd; clip-rule:evenodd"
viewBox="0 0 2900 3600"
 xmlns:xlink="http://www.w3.org/1999/xlink">
 <defs>
  <style type="text/css">
   <![CDATA[
    .fil1 {fill:#3863AA}
    .fil2 {fill:#D72E33}
    .fil0 {fill:#F19223}
   ]]>
  </style>
 </defs>
 <g id="Слой_x0020_1">
  <metadata id="CorelCorpID_0Corel-Layer"/>
  <g id="_758183638240">
   <path class="fil0" d="M2228 424l220 204 -220 8 0 -212zm-163 -388l33 0c205,41 730,736 730,741l0 2575c0,126 -113,186 -270,212l-788 0c-412,0 -824,0 -1235,0 2,-113 -12,-177 106,-177l1940 0 0 -2539c-698,0 -565,144 -565,-706 0,-66 18,-98 49,-106z"/>
   <path class="fil1" d="M112 248l0 3069c0,156 247,194 247,0l0 -3069 1340 0c116,0 132,-71 141,-176 -30,-17 -106,-28 -210,-36l-1307 0c-85,0 -211,127 -211,212z"/>
   <path class="fil2" d="M570 1941c22,80 34,141 141,141l1447 0c107,0 119,-61 141,-141 -119,-66 -1676,-64 -1729,0z"/>
   <path class="fil2" d="M676 1165l1517 0c97,0 85,-27 106,-106 -42,-59 -5,-70 -106,-70l-1517 0c-151,0 -151,176 0,176z"/>
   <path class="fil2" d="M676 1624l1517 0c97,0 85,-28 106,-106 -42,-60 -5,-71 -106,-71l-1517 0c-151,0 -151,177 0,177z"/>
   <path class="fil2" d="M570 2435c42,59 5,70 106,70l1517 0c93,0 119,-43 82,-112 -41,-75 -462,-29 -717,-29l-780 -3c-182,4 -135,-26 -208,74z"/>
  </g>
 </g>
</svg>
