<?xml version="1.0" encoding="utf-8"?>
<svg version="1.1" id="wtsplayerlogo" xmlns="http://www.w3.org/2000/svg" xmlns:xlink="http://www.w3.org/1999/xlink" x="0px" y="0px"
	 viewBox="0 0 792 612" style="enable-background:new 0 0 792 612;" xml:space="preserve">
<style type="text/css">
	.st0{fill:#FFFFFF;}
</style>
<g>
	<path class="st0" d="M235.3,510.1C175,462.6,136.2,388.8,136.2,306c0-82.8,38.7-156.6,99.1-204.1"/>
	<g>
		<path d="M242.4,503.1c-46.4-36.8-78.9-88.4-91-146.4c-12.3-58.8-2.4-121.4,27.1-173.6c16.3-28.7,38.1-53.7,63.9-74.2
			c4.2-3.4,3.5-10.6,0-14.1c-4.2-4.2-9.9-3.4-14.1,0c-48.9,38.8-83.8,94.7-96.3,156c-13.1,63.6-3,130.9,28.9,187.6
			c17.1,30.3,40.1,57.3,67.4,78.9c4.2,3.4,10,4.1,14.1,0C245.9,513.7,246.7,506.4,242.4,503.1L242.4,503.1z"/>
	</g>
</g>
<g>
	<path class="st0" d="M653.1,343.1C635.1,469,526.9,565.8,396,565.8c-34.1,0-66.6-6.6-96.4-18.5"/>
	<g>
		<path d="M643.5,340.5c-8.1,55.6-34.2,107.1-74.8,146c-40.1,38.4-93.1,63.1-148.5,68.2c-40.2,3.7-80.4-2.2-117.9-17
			c-5-2-11,2.2-12.3,7c-1.6,5.7,1.9,10.3,7,12.3c64,25.3,137.6,25.1,201.2-1.2c55-22.8,101.6-63.1,131.5-114.7
			c17-29.3,28.3-61.8,33.2-95.3c0.8-5.3-1.3-10.7-7-12.3C651.1,332.2,644.3,335.1,643.5,340.5L643.5,340.5z"/>
	</g>
</g>
<g>
	<path class="st0" d="M299.6,64.7c29.8-11.9,62.3-18.5,96.4-18.5c130.8,0,239.1,96.7,257.1,222.6"/>
	<g>
		<path d="M302.3,74.4c60.8-24.1,128.8-24,189.3,0.7c50.7,20.7,93.8,59.1,121.1,106.5c16,27.7,26.2,58.2,30.9,89.9
			c0.8,5.3,7.6,8.3,12.3,7c5.7-1.6,7.8-6.9,7-12.3c-8.6-59.1-37.6-114.6-81-155.7C538,68.8,481,43.1,420.9,37.4
			c-41.9-4-84.8,2.2-123.9,17.7c-5,2-8.5,6.7-7,12.3C291.3,72.1,297.2,76.4,302.3,74.4L302.3,74.4z"/>
	</g>
</g>
<g>
	<g>
		<path d="M256.1,118.2c0,12.4,0,24.9,0,37.3c0,29.9,0,59.7,0,89.6c0,36.1,0,72.3,0,108.4c0,31.3,0,62.6,0,93.8
			c0,15.2-0.6,30.6,0,45.8c0,0.2,0,0.4,0,0.6c0,12.9,20,12.9,20,0c0-12.4,0-24.9,0-37.3c0-29.9,0-59.7,0-89.6c0-36.1,0-72.3,0-108.4
			c0-31.3,0-62.6,0-93.8c0-15.2,0.6-30.6,0-45.8c0-0.2,0-0.4,0-0.6C276.1,105.3,256.1,105.3,256.1,118.2L256.1,118.2z"/>
	</g>
</g>
<g>
	<g>
		<path d="M303.4,521.1c10.8-6.2,21.5-12.4,32.3-18.6c25.9-14.9,51.7-29.9,77.6-44.8c31.3-18.1,62.6-36.1,93.9-54.2
			c27.1-15.6,54.2-31.3,81.2-46.9c13.2-7.6,26.8-14.8,39.7-22.9c0.2-0.1,0.4-0.2,0.6-0.3c11.1-6.4,1.1-23.7-10.1-17.3
			c-10.8,6.2-21.5,12.4-32.3,18.6c-25.9,14.9-51.7,29.9-77.6,44.8c-31.3,18.1-62.6,36.1-93.9,54.2c-27.1,15.6-54.2,31.3-81.2,46.9
			c-13.2,7.6-26.8,14.8-39.7,22.9c-0.2,0.1-0.4,0.2-0.6,0.3C282.1,510.2,292.2,527.5,303.4,521.1L303.4,521.1z"/>
	</g>
</g>
<g>
	<g>
		<path d="M293.3,108.2c10.8,6.2,21.5,12.4,32.3,18.6c25.9,14.9,51.7,29.9,77.6,44.8c31.3,18.1,62.6,36.1,93.9,54.2
			c27.1,15.6,54.2,31.3,81.2,46.9c13.2,7.6,26.2,15.8,39.7,22.9c0.2,0.1,0.4,0.2,0.6,0.3c11.2,6.4,21.2-10.8,10.1-17.3
			c-10.8-6.2-21.5-12.4-32.3-18.6c-25.9-14.9-51.7-29.9-77.6-44.8c-31.3-18.1-62.6-36.1-93.9-54.2c-27.1-15.6-54.2-31.3-81.2-46.9
			c-13.2-7.6-26.2-15.8-39.7-22.9c-0.2-0.1-0.4-0.2-0.6-0.3C292.2,84.5,282.1,101.8,293.3,108.2L293.3,108.2z"/>
	</g>
</g>
<g>
	<g>
		<path d="M266.1,91c12.9,0,12.9-20,0-20C253.3,71,253.2,91,266.1,91L266.1,91z"/>
	</g>
</g>
<g>
	<g>
		<path d="M266.1,541c12.9,0,12.9-20,0-20C253.3,521,253.2,541,266.1,541L266.1,541z"/>
	</g>
</g>
<g>
	<g>
		<path d="M655.8,316c12.9,0,12.9-20,0-20C642.9,296,642.9,316,655.8,316L655.8,316z"/>
	</g>
</g>
</svg>
